<svg width="360" height="184" viewBox="0 0 360 184" fill="none" xmlns="http://www.w3.org/2000/svg">
<path d="M181.528 99.7739C171.346 96.5913 157.691 90.6101 157.213 80.0012C156.643 67.8011 148.612 56.241 137.328 51.4305C126.062 46.6199 113.748 47.443 104.467 55.4362C101.067 38.4255 89.5805 23.2073 74.1243 15.2324C58.6681 7.25745 39.5362 6.67213 23.6205 13.7142C8.89944 20.2258 -2.78921 33.1211 -7.95353 48.2844C-5.19677 50.3148 -2.67894 52.7109 -0.565423 55.4728C3.73512 61.0333 6.47349 67.8011 7.13511 74.8066C7.7416 81.3182 5.71998 88.6712 -0.36326 92.0734C-6.09731 95.2926 -14.7719 93.4269 -18.9438 88.4151C-23.0789 83.4399 -22.307 76.1235 -17.4 71.9897C-15.6173 70.4898 -13.026 73.0506 -14.827 74.5505C-17.5654 76.8552 -18.8335 80.4036 -17.4919 83.8241C-16.1503 87.2994 -12.5481 89.1285 -9.03786 89.787C-0.8411 91.3417 3.71674 84.1167 3.60647 76.8186C3.45944 66.9597 -1.70488 57.9238 -9.29515 51.9061C-16.3892 46.3639 -26.9384 46.1444 -34.7308 50.6623C-42.5968 55.235 -47.1546 64.8745 -45.666 73.8188C-49.9849 83.1656 -58.2919 89.7687 -68.2162 92.677C-78.1405 95.5852 -88.6897 95.4023 -99 94.4878C-94.093 102.719 -86.5395 109.358 -77.7178 113.2C-68.9146 117.041 -58.88 118.047 -49.4703 116.053C-48.5514 123.699 -41.1265 131.381 -34.3265 135.076C-27.5265 138.771 -18.9438 138.972 -11.9784 135.588C-12.8606 150.239 -6.2811 165.421 5.90377 173.67C18.0886 181.938 33.3794 184.736 48.1005 183.84C60.8 183.072 73.4994 179.633 84.1956 172.756C94.8919 165.878 103.475 155.434 106.93 143.252C106.948 143.252 106.966 143.289 106.985 143.307C108.382 137.929 108.841 132.332 107.977 126.79C106.58 117.9 101.857 109.34 93.9178 104.676C86.6583 100.414 76.7156 99.6642 69.5665 104.566C62.987 109.084 58.8702 118.211 61.9762 125.912C64.9351 133.247 74.0875 138.002 81.6594 134.984C83.8281 134.125 85.4637 137.38 83.2767 138.24C73.3524 142.191 61.4432 136.173 58.1902 126.113C55.2313 116.949 59.8994 106.688 67.6919 101.457C76.0356 95.8596 87.1913 96.6461 95.6637 101.457C104.963 106.761 110.513 117.114 111.745 127.485C112.462 133.576 111.782 139.612 110.128 145.429C115.237 148.447 121.393 149.69 127.183 148.392C134.24 146.8 140.452 141.825 143.503 135.277C154.86 138.386 166.457 139.557 177.797 136.411C185.038 134.417 191.966 131.125 197.774 126.369C206.375 119.327 212.238 109.048 213.91 98.0911C204.206 102.499 191.709 102.902 181.546 99.7191L181.528 99.7739Z" fill="white"/>
<path d="M394.175 99.7739C383.993 96.5913 370.338 90.6101 369.86 80.0012C369.291 67.8011 361.259 56.241 349.975 51.4305C338.709 46.6199 326.396 47.443 317.114 55.4362C313.714 38.4255 302.228 23.2073 286.772 15.2324C271.316 7.25745 252.184 6.67213 236.268 13.7142C221.547 20.2258 209.858 33.1211 204.694 48.2844C207.451 50.3148 209.969 52.7109 212.082 55.4728C216.383 61.0333 219.121 67.8011 219.783 74.8066C220.389 81.3182 218.367 88.6712 212.284 92.0734C206.55 95.2926 197.876 93.4269 193.704 88.4151C189.569 83.4399 190.34 76.1235 195.247 71.9897C197.03 70.4898 199.622 73.0506 197.82 74.5505C195.082 76.8552 193.814 80.4036 195.156 83.8241C196.497 87.2994 200.099 89.1285 203.61 89.787C211.806 91.3417 216.364 84.1167 216.254 76.8186C216.107 66.9597 210.943 57.9238 203.352 51.9061C196.258 46.3639 185.709 46.1444 177.917 50.6623C170.051 55.235 165.493 64.8745 166.982 73.8188C162.663 83.1656 154.356 89.7687 144.431 92.677C134.507 95.5852 123.958 95.4023 113.647 94.4878C118.554 102.719 126.108 109.358 134.93 113.2C143.733 117.041 153.767 118.047 163.177 116.053C164.096 123.699 171.521 131.381 178.321 135.076C185.121 138.771 193.704 138.972 200.669 135.588C199.787 150.239 206.366 165.421 218.551 173.67C230.736 181.938 246.027 184.736 260.748 183.84C273.447 183.072 286.147 179.633 296.843 172.756C307.539 165.878 316.122 155.434 319.577 143.252C319.596 143.252 319.614 143.289 319.632 143.307C321.029 137.929 321.488 132.332 320.625 126.79C319.228 117.9 314.505 109.34 306.565 104.676C299.306 100.414 289.363 99.6642 282.214 104.566C275.634 109.084 271.518 118.211 274.624 125.912C277.583 133.247 286.735 138.002 294.307 134.984C296.476 134.125 298.111 137.38 295.924 138.24C286 142.191 274.091 136.173 270.838 126.113C267.879 116.949 272.547 106.688 280.339 101.457C288.683 95.8596 299.839 96.6461 308.311 101.457C317.611 106.761 323.161 117.114 324.392 127.485C325.109 133.576 324.429 139.612 322.775 145.429C327.884 148.447 334.041 149.69 339.83 148.392C346.887 146.8 353.099 141.825 356.15 135.277C367.508 138.386 379.105 139.557 390.444 136.411C397.685 134.417 404.614 131.125 410.421 126.369C419.023 119.327 424.885 109.048 426.558 98.0911C416.854 102.499 404.357 102.902 394.193 99.7191L394.175 99.7739Z" fill="white"/>
</svg>
