<svg width="1440" height="320" viewBox="0 0 1440 320" fill="none" xmlns="http://www.w3.org/2000/svg">
<path d="M1179.22 173.52C1161.5 167.985 1137.74 157.583 1136.91 139.133C1135.92 117.915 1121.94 97.8106 1102.3 89.4444C1082.7 81.0782 1061.27 82.5097 1045.12 96.411C1039.21 66.8271 1019.22 40.3606 992.323 26.4912C965.427 12.6218 932.135 11.6038 904.44 23.8509C878.823 35.1755 858.483 57.602 849.497 83.9731C854.294 87.504 858.675 91.6712 862.353 96.4746C869.837 106.145 874.602 117.915 875.753 130.098C876.808 141.423 873.291 154.211 862.705 160.128C852.727 165.726 837.632 162.482 830.372 153.766C823.177 145.113 824.52 132.389 833.059 125.2C836.161 122.591 840.67 127.045 837.536 129.653C832.771 133.661 830.564 139.833 832.899 145.781C835.234 151.825 841.502 155.006 847.61 156.151C861.873 158.855 869.805 146.29 869.613 133.598C869.357 116.452 860.37 100.737 847.162 90.2715C834.818 80.6329 816.461 80.2512 802.901 88.1084C789.213 96.0611 781.282 112.825 783.872 128.381C776.357 144.636 761.902 156.12 744.632 161.177C727.363 166.235 709.006 165.917 691.064 164.327C699.603 178.641 712.747 190.189 728.098 196.869C743.417 203.549 760.878 205.299 777.252 201.831C778.852 215.128 791.772 228.489 803.605 234.915C815.437 241.34 830.372 241.69 842.493 235.805C840.958 261.286 852.407 287.688 873.61 302.035C894.814 316.413 921.422 321.28 947.038 319.722C969.137 318.386 991.235 312.405 1009.85 300.444C1028.46 288.484 1043.4 270.32 1049.41 249.134C1049.44 249.134 1049.47 249.197 1049.5 249.229C1051.93 239.877 1052.73 230.143 1051.23 220.504C1048.8 205.044 1040.58 190.157 1026.77 182.045C1014.13 174.633 996.832 173.329 984.392 181.854C972.942 189.712 965.779 205.585 971.184 218.977C976.332 231.733 992.259 240.004 1005.43 234.755C1009.21 233.26 1012.05 238.923 1008.25 240.418C990.98 247.289 970.256 236.823 964.596 219.327C959.447 203.39 967.57 185.544 981.13 176.447C995.649 166.712 1015.06 168.08 1029.8 176.447C1045.99 185.672 1055.64 203.676 1057.79 221.713C1059.03 232.306 1057.85 242.804 1054.97 252.919C1063.86 258.168 1074.58 260.331 1084.65 258.073C1096.93 255.305 1107.74 246.653 1113.05 235.264C1132.81 240.672 1152.99 242.708 1172.73 237.237C1185.33 233.769 1197.38 228.043 1207.49 219.773C1222.46 207.526 1232.66 189.648 1235.57 170.593C1218.68 178.26 1196.94 178.96 1179.25 173.425L1179.22 173.52Z" fill="#FFEFD8"/>
<path d="M439.154 173.52C421.436 167.985 397.675 157.583 396.843 139.133C395.852 117.915 381.876 97.8106 362.24 89.4444C342.636 81.0782 321.209 82.5097 305.058 96.411C299.142 66.8271 279.154 40.3606 252.258 26.4912C225.363 12.6218 192.071 11.6038 164.375 23.8509C138.759 35.1755 118.419 57.602 109.432 83.9731C114.23 87.504 118.611 91.6712 122.289 96.4746C129.772 106.145 134.537 117.915 135.689 130.098C136.744 141.423 133.226 154.211 122.64 160.128C112.663 165.726 97.5676 162.482 90.308 153.766C83.1123 145.113 84.4555 132.389 92.9944 125.2C96.0965 122.591 100.606 127.045 97.4717 129.653C92.7065 133.661 90.4999 139.833 92.8345 145.781C95.1691 151.825 101.437 155.006 107.546 156.151C121.809 158.855 129.74 146.29 129.548 133.598C129.292 116.452 120.306 100.737 107.098 90.2715C94.7533 80.6329 76.3964 80.2512 62.8366 88.1084C49.1488 96.0611 41.2176 112.825 43.808 128.381C36.2926 144.636 21.8373 156.12 4.56769 161.177C-12.7019 166.235 -31.0588 165.917 -49 164.327C-40.4611 178.641 -27.3171 190.189 -11.9663 196.869C3.35243 203.549 20.8139 205.299 37.188 201.831C38.7871 215.128 51.7073 228.489 63.5401 234.915C75.373 241.34 90.308 241.69 102.429 235.805C100.894 261.286 112.343 287.688 133.546 302.035C154.749 316.413 181.357 321.28 206.974 319.722C229.072 318.386 251.171 312.405 269.784 300.444C288.397 288.484 303.331 270.32 309.344 249.134C309.376 249.134 309.408 249.198 309.44 249.229C311.87 239.877 312.67 230.143 311.167 220.504C308.736 205.044 300.517 190.157 286.702 182.045C274.069 174.633 256.768 173.329 244.327 181.854C232.878 189.712 225.714 205.585 231.119 218.977C236.268 231.733 252.194 240.004 265.37 234.755C269.144 233.26 271.99 238.923 268.185 240.418C250.915 247.289 230.192 236.823 224.531 219.327C219.382 203.39 227.505 185.544 241.065 176.447C255.584 166.712 274.997 168.08 289.74 176.447C305.922 185.672 315.58 203.676 317.723 221.713C318.97 232.306 317.787 242.804 314.909 252.919C323.799 258.168 334.513 260.331 344.587 258.073C356.867 255.305 367.677 246.653 372.985 235.264C392.75 240.672 412.929 242.708 432.662 237.237C445.262 233.769 457.319 228.043 467.425 219.773C482.392 207.526 492.593 189.648 495.504 170.593C478.618 178.26 456.871 178.96 439.186 173.425L439.154 173.52Z" fill="#FFEFD8"/>
<path d="M809.186 173.52C791.469 167.985 767.707 157.583 766.875 139.133C765.884 117.915 751.908 97.8106 732.272 89.4444C712.668 81.0782 691.241 82.5097 675.091 96.411C669.174 66.8271 649.186 40.3606 622.291 26.4912C595.395 12.6218 562.103 11.6038 534.408 23.8509C508.791 35.1755 488.451 57.602 479.465 83.9731C484.262 87.504 488.643 91.6712 492.321 96.4746C499.804 106.145 504.57 117.915 505.721 130.098C506.776 141.423 503.258 154.211 492.673 160.128C482.695 165.726 467.6 162.482 460.34 153.766C453.145 145.113 454.488 132.389 463.027 125.2C466.129 122.591 470.638 127.045 467.504 129.653C462.739 133.661 460.532 139.833 462.867 145.781C465.201 151.825 471.47 155.006 477.578 156.151C491.841 158.855 499.772 146.29 499.581 133.598C499.325 116.452 490.338 100.737 477.13 90.2715C464.786 80.6329 446.429 80.2512 432.869 88.1084C419.181 96.0611 411.25 112.825 413.84 128.381C406.325 144.636 391.87 156.12 374.6 161.177C357.33 166.235 338.973 165.917 321.032 164.327C329.571 178.641 342.715 190.189 358.066 196.869C373.385 203.549 390.846 205.299 407.22 201.831C408.819 215.128 421.739 228.489 433.572 234.915C445.405 241.34 460.34 241.69 472.461 235.805C470.926 261.286 482.375 287.688 503.578 302.035C524.781 316.413 551.389 321.28 577.006 319.722C599.105 318.386 621.203 312.405 639.816 300.444C658.429 288.484 673.364 270.32 679.376 249.134C679.408 249.134 679.44 249.198 679.472 249.229C681.903 239.877 682.702 230.143 681.199 220.504C678.768 205.044 670.549 190.157 656.734 182.045C644.101 174.633 626.8 173.329 614.359 181.854C602.91 189.712 595.747 205.585 601.151 218.977C606.3 231.733 622.227 240.004 635.403 234.755C639.176 233.26 642.023 238.923 638.217 240.418C620.947 247.289 600.224 236.823 594.563 219.327C589.414 203.39 597.537 185.544 611.097 176.447C625.617 166.712 645.029 168.08 659.772 176.447C675.954 185.672 685.612 203.676 687.755 221.713C689.002 232.306 687.819 242.804 684.941 252.919C693.831 258.168 704.545 260.331 714.619 258.073C726.899 255.305 737.709 246.653 743.018 235.264C762.782 240.672 782.962 242.708 802.694 237.237C815.294 233.769 827.351 228.043 837.457 219.773C852.424 207.526 862.626 189.648 865.536 170.593C848.65 178.26 826.903 178.96 809.218 173.425L809.186 173.52Z" fill="#FFEFD8"/>
<path d="M1493.65 158.191C1475.93 152.656 1452.17 142.254 1451.34 123.803C1450.35 102.586 1436.37 82.4813 1416.74 74.1151C1397.13 65.7489 1375.7 67.1804 1359.55 81.0816C1353.64 51.4977 1333.65 25.0313 1306.75 11.1619C1279.86 -2.70757 1246.57 -3.72552 1218.87 8.52158C1193.25 19.8462 1172.92 42.2727 1163.93 68.6437C1168.73 72.1747 1173.11 76.3419 1176.78 81.1453C1184.27 90.8157 1189.03 102.586 1190.18 114.769C1191.24 126.094 1187.72 138.882 1177.14 144.798C1167.16 150.397 1152.06 147.152 1144.8 138.436C1137.61 129.784 1138.95 117.059 1147.49 109.87C1150.59 107.262 1155.1 111.715 1151.97 114.324C1147.2 118.332 1145 124.503 1147.33 130.452C1149.67 136.496 1155.93 139.677 1162.04 140.822C1176.31 143.526 1184.24 130.961 1184.04 118.268C1183.79 101.122 1174.8 85.4079 1161.59 74.9422C1149.25 65.3036 1130.89 64.9218 1117.33 72.7791C1103.64 80.7317 1095.71 97.4959 1098.3 113.051C1090.79 129.307 1076.33 140.79 1059.06 145.848C1041.79 150.906 1023.44 150.588 1005.5 148.997C1014.03 163.312 1027.18 174.859 1042.53 181.54C1057.85 188.22 1075.31 189.969 1091.68 186.502C1093.28 199.799 1106.2 213.159 1118.04 219.585C1129.87 226.011 1144.8 226.361 1156.92 220.476C1155.39 245.956 1166.84 272.359 1188.04 286.706C1209.25 301.084 1235.85 305.951 1261.47 304.392C1283.57 303.056 1305.67 297.076 1324.28 285.115C1342.89 273.154 1357.83 254.99 1363.84 233.805C1363.87 233.805 1363.9 233.868 1363.94 233.9C1366.37 224.548 1367.17 214.814 1365.66 205.175C1363.23 189.715 1355.01 174.828 1341.2 166.716C1328.57 159.304 1311.26 158 1298.82 166.525C1287.37 174.382 1280.21 190.256 1285.62 203.648C1290.76 216.404 1306.69 224.675 1319.87 219.426C1323.64 217.931 1326.49 223.593 1322.68 225.088C1305.41 231.96 1284.69 221.494 1279.03 203.998C1273.88 188.061 1282 170.215 1295.56 161.117C1310.08 151.383 1329.49 152.751 1344.24 161.117C1360.42 170.342 1370.08 188.347 1372.22 206.384C1373.47 216.977 1372.28 227.474 1369.4 237.59C1378.3 242.839 1389.01 245.002 1399.08 242.743C1411.36 239.976 1422.17 231.323 1427.48 219.935C1447.25 225.343 1467.43 227.379 1487.16 221.907C1499.76 218.44 1511.81 212.714 1521.92 204.443C1536.89 192.196 1547.09 174.319 1550 155.264C1533.11 162.93 1511.37 163.63 1493.68 158.095L1493.65 158.191Z" fill="#FFEFD8"/>
</svg>
