<svg width="1440" height="334" viewBox="0 0 1440 334" fill="none" xmlns="http://www.w3.org/2000/svg">
<path d="M415.218 181.111C396.737 175.334 371.95 164.477 371.082 145.22C370.048 123.074 355.469 102.09 334.986 93.3576C314.536 84.6254 292.184 86.1195 275.337 100.629C269.165 69.7508 248.315 42.1264 220.258 27.6502C192.202 13.174 157.473 12.1115 128.583 24.8944C101.861 36.7144 80.6435 60.1221 71.2691 87.6469C76.2732 91.3323 80.8437 95.6818 84.6801 100.695C92.4866 110.789 97.4573 123.074 98.6583 135.79C99.7592 147.61 96.0895 160.958 85.0471 167.133C74.6386 172.977 58.8923 169.59 51.3194 160.493C43.8132 151.462 45.2144 138.181 54.1217 130.677C57.3577 127.954 62.0616 132.603 58.7922 135.325C53.8215 139.509 51.5196 145.95 53.9549 152.159C56.3902 158.467 62.9289 161.788 69.3008 162.983C84.1797 165.805 92.4532 152.69 92.253 139.443C91.9861 121.546 82.6118 105.144 68.8338 94.2209C55.9565 84.1606 36.8075 83.7622 22.6625 91.9631C8.38412 100.264 0.110649 117.761 2.81287 133.997C-5.0269 150.964 -20.1059 162.95 -38.1208 168.229C-56.1356 173.508 -75.2846 173.176 -94 171.516C-85.0927 186.457 -71.3814 198.509 -55.3683 205.482C-39.3885 212.454 -21.1735 214.281 -4.0928 210.662C-2.42477 224.54 11.053 238.485 23.3965 245.192C35.7399 251.899 51.3194 252.264 63.9631 246.122C62.3618 272.717 74.305 300.275 96.4231 315.249C118.541 330.256 146.297 335.336 173.019 333.71C196.072 332.315 219.124 326.073 238.54 313.589C257.956 301.105 273.535 282.146 279.807 260.033C279.84 260.033 279.874 260.1 279.907 260.133C282.443 250.372 283.277 240.212 281.709 230.151C279.173 214.015 270.6 198.476 256.188 190.01C243.01 182.274 224.962 180.912 211.985 189.81C200.042 198.011 192.569 214.579 198.207 228.558C203.578 241.872 220.191 250.504 233.936 245.026C237.873 243.465 240.842 249.376 236.872 250.936C218.857 258.108 197.239 247.184 191.334 228.923C185.963 212.288 194.437 193.662 208.582 184.166C223.728 174.006 243.978 175.434 259.357 184.166C276.238 193.795 286.312 212.587 288.548 231.413C289.849 242.469 288.614 253.426 285.612 263.985C294.886 269.463 306.062 271.721 316.571 269.363C329.381 266.475 340.657 257.444 346.195 245.557C366.812 251.202 387.863 253.327 408.446 247.616C421.59 243.997 434.167 238.02 444.709 229.388C460.322 216.605 470.964 197.945 474 178.057C456.385 186.059 433.7 186.789 415.252 181.012L415.218 181.111Z" fill="white"/>
<path d="M801.218 181.111C782.737 175.334 757.95 164.477 757.082 145.22C756.048 123.074 741.469 102.09 720.986 93.3576C700.536 84.6254 678.184 86.1195 661.337 100.629C655.165 69.7508 634.315 42.1264 606.258 27.6502C578.202 13.174 543.473 12.1115 514.583 24.8944C487.861 36.7144 466.643 60.1221 457.269 87.6469C462.273 91.3323 466.844 95.6818 470.68 100.695C478.487 110.789 483.457 123.074 484.658 135.79C485.759 147.61 482.09 160.958 471.047 167.133C460.639 172.977 444.892 169.59 437.319 160.493C429.813 151.462 431.214 138.181 440.122 130.677C443.358 127.954 448.062 132.603 444.792 135.325C439.821 139.509 437.52 145.95 439.955 152.159C442.39 158.467 448.929 161.788 455.301 162.983C470.18 165.805 478.453 152.69 478.253 139.443C477.986 121.546 468.612 105.144 454.834 94.2209C441.957 84.1606 422.807 83.7622 408.663 91.9631C394.384 100.264 386.111 117.761 388.813 133.997C380.973 150.964 365.894 162.95 347.879 168.229C329.864 173.508 310.715 173.176 292 171.516C300.907 186.457 314.619 198.509 330.632 205.482C346.612 212.454 364.826 214.281 381.907 210.662C383.575 224.54 397.053 238.485 409.396 245.192C421.74 251.899 437.319 252.264 449.963 246.122C448.362 272.717 460.305 300.275 482.423 315.249C504.541 330.256 532.297 335.336 559.019 333.71C582.072 332.315 605.124 326.073 624.54 313.589C643.956 301.105 659.535 282.146 665.807 260.033C665.84 260.033 665.874 260.1 665.907 260.133C668.443 250.372 669.277 240.212 667.709 230.151C665.173 214.015 656.6 198.476 642.188 190.01C629.01 182.274 610.962 180.912 597.985 189.81C586.042 198.011 578.569 214.579 584.207 228.558C589.578 241.872 606.191 250.504 619.936 245.026C623.873 243.465 626.842 249.376 622.872 250.936C604.857 258.108 583.239 247.184 577.334 228.923C571.963 212.288 580.437 193.662 594.582 184.166C609.728 174.006 629.978 175.434 645.357 184.166C662.238 193.795 672.312 212.587 674.548 231.413C675.849 242.469 674.614 253.426 671.612 263.985C680.886 269.463 692.062 271.721 702.571 269.363C715.381 266.475 726.657 257.444 732.195 245.557C752.812 251.202 773.863 253.327 794.446 247.616C807.59 243.997 820.167 238.02 830.709 229.388C846.322 216.605 856.964 197.945 860 178.057C842.385 186.059 819.7 186.789 801.252 181.012L801.218 181.111Z" fill="white"/>
<path d="M1187.22 181.111C1168.74 175.334 1143.95 164.477 1143.08 145.22C1142.05 123.074 1127.47 102.09 1106.99 93.3576C1086.54 84.6254 1064.18 86.1195 1047.34 100.629C1041.17 69.7508 1020.31 42.1264 992.258 27.6502C964.202 13.174 929.473 12.1115 900.583 24.8944C873.861 36.7144 852.643 60.1221 843.269 87.6469C848.273 91.3323 852.844 95.6818 856.68 100.695C864.487 110.789 869.457 123.074 870.658 135.79C871.759 147.61 868.09 160.958 857.047 167.133C846.639 172.977 830.892 169.59 823.319 160.493C815.813 151.462 817.214 138.181 826.122 130.677C829.358 127.955 834.062 132.603 830.792 135.325C825.821 139.509 823.52 145.95 825.955 152.159C828.39 158.467 834.929 161.788 841.301 162.983C856.18 165.805 864.453 152.69 864.253 139.443C863.986 121.546 854.612 105.144 840.834 94.2209C827.957 84.1606 808.807 83.7622 794.663 91.9631C780.384 100.264 772.111 117.761 774.813 133.997C766.973 150.964 751.894 162.95 733.879 168.229C715.864 173.508 696.715 173.176 678 171.516C686.907 186.457 700.619 198.51 716.632 205.482C732.612 212.454 750.827 214.281 767.907 210.662C769.575 224.54 783.053 238.485 795.396 245.192C807.74 251.899 823.319 252.264 835.963 246.122C834.362 272.717 846.305 300.275 868.423 315.249C890.541 330.256 918.297 335.336 945.019 333.71C968.072 332.315 991.124 326.073 1010.54 313.589C1029.96 301.105 1045.54 282.146 1051.81 260.033C1051.84 260.033 1051.87 260.1 1051.91 260.133C1054.44 250.372 1055.28 240.212 1053.71 230.151C1051.17 214.015 1042.6 198.476 1028.19 190.01C1015.01 182.274 996.962 180.912 983.985 189.81C972.042 198.011 964.569 214.579 970.207 228.558C975.578 241.872 992.191 250.504 1005.94 245.026C1009.87 243.466 1012.84 249.376 1008.87 250.936C990.857 258.108 969.239 247.184 963.334 228.923C957.963 212.288 966.437 193.662 980.582 184.166C995.728 174.006 1015.98 175.434 1031.36 184.166C1048.24 193.795 1058.31 212.587 1060.55 231.413C1061.85 242.469 1060.61 253.426 1057.61 263.985C1066.89 269.463 1078.06 271.721 1088.57 269.363C1101.38 266.475 1112.66 257.444 1118.2 245.557C1138.81 251.202 1159.86 253.327 1180.45 247.616C1193.59 243.997 1206.17 238.02 1216.71 229.388C1232.32 216.605 1242.96 197.945 1246 178.057C1228.39 186.059 1205.7 186.789 1187.25 181.012L1187.22 181.111Z" fill="white"/>
<path d="M1527.22 165.111C1508.74 159.334 1483.95 148.477 1483.08 129.22C1482.05 107.074 1467.47 86.0899 1446.99 77.3576C1426.54 68.6254 1404.18 70.1195 1387.34 84.629C1381.17 53.7508 1360.31 26.1264 1332.26 11.6502C1304.2 -2.82603 1269.47 -3.88851 1240.58 8.8944C1213.86 20.7144 1192.64 44.1221 1183.27 71.6469C1188.27 75.3323 1192.84 79.6818 1196.68 84.6954C1204.49 94.7889 1209.46 107.074 1210.66 119.79C1211.76 131.61 1208.09 144.958 1197.05 151.133C1186.64 156.977 1170.89 153.59 1163.32 144.493C1155.81 135.462 1157.21 122.181 1166.12 114.677C1169.36 111.954 1174.06 116.603 1170.79 119.325C1165.82 123.509 1163.52 129.95 1165.95 136.159C1168.39 142.467 1174.93 145.788 1181.3 146.983C1196.18 149.805 1204.45 136.69 1204.25 123.443C1203.99 105.546 1194.61 89.1445 1180.83 78.2209C1167.96 68.1606 1148.81 67.7622 1134.66 75.9631C1120.38 84.2637 1112.11 101.761 1114.81 117.997C1106.97 134.964 1091.89 146.95 1073.88 152.229C1055.86 157.508 1036.72 157.176 1018 155.516C1026.91 170.457 1040.62 182.509 1056.63 189.482C1072.61 196.454 1090.83 198.281 1107.91 194.662C1109.58 208.54 1123.05 222.485 1135.4 229.192C1147.74 235.899 1163.32 236.264 1175.96 230.122C1174.36 256.717 1186.3 284.275 1208.42 299.249C1230.54 314.256 1258.3 319.336 1285.02 317.71C1308.07 316.315 1331.12 310.073 1350.54 297.589C1369.96 285.105 1385.54 266.146 1391.81 244.033C1391.84 244.033 1391.87 244.1 1391.91 244.133C1394.44 234.372 1395.28 224.212 1393.71 214.151C1391.17 198.015 1382.6 182.476 1368.19 174.01C1355.01 166.274 1336.96 164.912 1323.98 173.81C1312.04 182.011 1304.57 198.579 1310.21 212.558C1315.58 225.872 1332.19 234.504 1345.94 229.026C1349.87 227.465 1352.84 233.376 1348.87 234.936C1330.86 242.108 1309.24 231.184 1303.33 212.923C1297.96 196.288 1306.44 177.662 1320.58 168.166C1335.73 158.006 1355.98 159.434 1371.36 168.166C1388.24 177.795 1398.31 196.587 1400.55 215.413C1401.85 226.469 1400.61 237.426 1397.61 247.985C1406.89 253.463 1418.06 255.721 1428.57 253.363C1441.38 250.475 1452.66 241.444 1458.2 229.557C1478.81 235.202 1499.86 237.327 1520.45 231.616C1533.59 227.997 1546.17 222.02 1556.71 213.388C1572.32 200.605 1582.96 181.945 1586 162.057C1568.39 170.059 1545.7 170.789 1527.25 165.012L1527.22 165.111Z" fill="white"/>
</svg>
