<svg width="357" height="139" viewBox="0 0 357 139" fill="none" xmlns="http://www.w3.org/2000/svg">
<path d="M49.1665 114.389C43.3932 78.2184 85.3717 85.4628 85.3717 85.4628C83.3703 56.7161 78.5463 31.5917 106.079 11.8364C128.607 -4.32237 165.326 -4.21962 186.649 13.8916C195.681 21.5471 203.301 33.1074 203.584 45.1558C203.815 54.4555 201.787 70.9482 193.987 76.677C193.987 76.677 173.511 101.365 153.266 88.3658C133.046 75.3411 147.493 55.0977 159.039 53.6591C159.039 53.6591 150.366 40.6345 135.92 60.9036C121.474 81.1727 140.257 102.855 159.039 102.855C174.871 102.855 194.757 92.5532 209.306 72.8749C222.135 71.4877 234.914 74.7246 245.023 84.0499C248.205 87.0042 262.6 103.291 257.314 108.635C296.316 68.1223 315.099 123.098 315.099 123.098C336.781 104.293 357 139 357 139H0.02915C0.02915 139 -2.87036 114.415 49.1665 114.415V114.389Z" fill="#F5E3CB"/>
</svg>
