<svg width="1440" height="341" viewBox="0 0 1440 341" fill="none" xmlns="http://www.w3.org/2000/svg">
<path d="M1215.89 184.907C1196.9 179.009 1171.42 167.924 1170.53 148.263C1169.46 125.653 1154.48 104.229 1133.43 95.3142C1112.41 86.399 1089.43 87.9244 1072.12 102.738C1065.77 71.2126 1044.34 43.0093 1015.5 28.2297C986.666 13.4501 950.97 12.3653 921.275 25.4161C893.809 37.4839 872.001 61.3822 862.366 89.4838C867.509 93.2465 872.207 97.6871 876.15 102.806C884.174 113.111 889.283 125.653 890.518 138.636C891.649 150.704 887.877 164.331 876.528 170.636C865.829 176.602 849.644 173.145 841.861 163.856C834.146 154.636 835.586 141.077 844.741 133.416C848.067 130.636 852.902 135.382 849.542 138.162C844.432 142.433 842.066 149.009 844.57 155.348C847.073 161.789 853.794 165.178 860.343 166.399C875.636 169.28 884.14 155.89 883.934 142.365C883.66 124.094 874.024 107.348 859.863 96.1956C846.627 85.9245 826.945 85.5176 812.406 93.8905C797.73 102.365 789.226 120.229 792.004 136.806C783.946 154.128 768.447 166.365 749.93 171.755C731.414 177.145 711.732 176.806 692.495 175.111C701.65 190.365 715.743 202.67 732.202 209.788C748.627 216.907 767.349 218.772 784.906 215.077C786.62 229.246 800.473 243.483 813.16 250.331C825.847 257.178 841.861 257.551 854.856 251.28C853.211 278.432 865.486 306.568 888.22 321.856C910.954 337.178 939.483 342.364 966.949 340.703C990.643 339.28 1014.34 332.907 1034.29 320.161C1054.25 307.415 1070.26 288.059 1076.71 265.483C1076.74 265.483 1076.78 265.551 1076.81 265.585C1079.42 255.619 1080.28 245.246 1078.66 234.975C1076.06 218.5 1067.25 202.636 1052.43 193.992C1038.89 186.094 1020.34 184.704 1007 193.789C994.724 202.161 987.043 219.077 992.838 233.348C998.359 246.941 1015.43 255.754 1029.56 250.161C1033.61 248.568 1036.66 254.602 1032.58 256.195C1014.06 263.517 991.844 252.365 985.774 233.721C980.254 216.738 988.963 197.721 1003.5 188.026C1019.07 177.653 1039.88 179.111 1055.69 188.026C1073.04 197.856 1083.4 217.043 1085.69 236.263C1087.03 247.551 1085.76 258.738 1082.68 269.517C1092.21 275.11 1103.7 277.415 1114.5 275.009C1127.66 272.06 1139.25 262.839 1144.95 250.704C1166.14 256.466 1187.77 258.636 1208.93 252.805C1222.44 249.11 1235.37 243.009 1246.2 234.195C1262.25 221.144 1273.19 202.094 1276.31 181.789C1258.21 189.958 1234.89 190.704 1215.93 184.806L1215.89 184.907Z" fill="white"/>
<path d="M422.397 184.907C403.4 179.009 377.923 167.924 377.032 148.263C375.969 125.653 360.984 104.229 339.93 95.3142C318.911 86.399 295.937 87.9244 278.62 102.738C272.277 71.2126 250.846 43.0093 222.008 28.2297C193.171 13.4501 157.475 12.3653 127.78 25.4161C100.314 37.4839 78.5062 61.3822 68.8708 89.4838C74.0142 93.2465 78.7119 97.6871 82.6552 102.806C90.679 113.111 95.7882 125.653 97.0226 138.636C98.1541 150.704 94.3823 164.331 83.0324 170.636C72.3341 176.602 56.1494 173.145 48.3656 163.856C40.6504 154.636 42.0906 141.077 51.2459 133.416C54.572 130.636 59.4069 135.382 56.0465 138.162C50.9373 142.433 48.5714 149.009 51.0745 155.348C53.5776 161.789 60.2984 165.178 66.8477 166.399C82.1409 169.28 90.6447 155.89 90.439 142.365C90.1647 124.094 80.5293 107.348 66.3677 96.1956C53.1319 85.9245 33.4496 85.5176 18.9108 93.8905C4.23486 102.365 -4.26897 120.229 -1.49151 136.806C-9.54958 154.128 -25.0485 166.365 -43.5649 171.755C-62.0813 177.145 -81.7635 176.806 -101 175.111C-91.8447 190.365 -77.7516 202.67 -61.2926 209.788C-44.8679 216.907 -26.1458 218.772 -8.58947 215.077C-6.87498 229.246 6.97804 243.483 19.6652 250.331C32.3524 257.178 48.3656 257.551 61.3614 251.28C59.7155 278.432 71.9912 306.568 94.7252 321.856C117.459 337.178 145.988 342.364 173.454 340.703C197.148 339.28 220.842 332.907 240.799 320.161C260.756 307.415 276.769 288.06 283.215 265.483C283.25 265.483 283.284 265.551 283.318 265.585C285.924 255.619 286.781 245.246 285.17 234.975C282.564 218.5 273.751 202.636 258.938 193.992C245.394 186.094 226.843 184.704 213.504 193.789C201.229 202.161 193.548 219.077 199.343 233.348C204.863 246.941 221.94 255.754 236.067 250.161C240.113 248.568 243.165 254.602 239.084 256.195C220.568 263.517 198.348 252.365 192.279 233.721C186.759 216.738 195.468 197.721 210.007 188.026C225.574 177.653 246.388 179.111 262.196 188.026C279.546 197.856 289.902 217.043 292.199 236.263C293.536 247.551 292.268 258.738 289.182 269.517C298.714 275.11 310.201 277.415 321.002 275.009C334.17 272.06 345.76 262.839 351.452 250.704C372.643 256.466 394.279 258.636 415.436 252.805C428.946 249.11 441.873 243.009 452.709 234.195C468.756 221.144 479.695 202.094 482.815 181.789C464.71 189.958 441.393 190.704 422.431 184.806L422.397 184.907Z" fill="white"/>
<path d="M819.145 184.907C800.148 179.009 774.671 167.924 773.78 148.263C772.717 125.653 757.732 104.229 736.678 95.3142C715.659 86.399 692.685 87.9244 675.368 102.738C669.025 71.2126 647.594 43.0093 618.756 28.2297C589.919 13.4501 554.223 12.3653 524.528 25.4161C497.062 37.4839 475.254 61.3822 465.619 89.4838C470.762 93.2465 475.46 97.6871 479.403 102.806C487.427 113.111 492.536 125.653 493.771 138.636C494.902 150.704 491.13 164.331 479.78 170.636C469.082 176.602 452.897 173.145 445.114 163.856C437.398 154.636 438.839 141.077 447.994 133.416C451.32 130.636 456.155 135.382 452.795 138.162C447.685 142.433 445.319 149.009 447.823 155.348C450.326 161.789 457.046 165.178 463.596 166.399C478.889 169.28 487.393 155.89 487.187 142.365C486.913 124.094 477.277 107.348 463.116 96.1956C449.88 85.9245 430.198 85.5176 415.659 93.8905C400.983 102.365 392.479 120.229 395.257 136.806C387.198 154.128 371.7 166.365 353.183 171.755C334.667 177.145 314.985 176.806 295.748 175.111C304.903 190.365 318.996 202.67 335.455 209.788C351.88 216.907 370.602 218.772 388.159 215.077C389.873 229.246 403.726 243.483 416.413 250.331C429.1 257.178 445.114 257.551 458.109 251.28C456.464 278.432 468.739 306.568 491.473 321.856C514.207 337.178 542.736 342.364 570.202 340.703C593.896 339.28 617.59 332.907 637.547 320.161C657.504 307.415 673.517 288.06 679.963 265.483C679.998 265.483 680.032 265.551 680.066 265.585C682.672 255.619 683.529 245.246 681.918 234.975C679.312 218.5 670.499 202.636 655.686 193.992C642.142 186.094 623.591 184.704 610.252 193.789C597.977 202.161 590.296 219.077 596.091 233.348C601.611 246.941 618.688 255.754 632.815 250.161C636.861 248.568 639.913 254.602 635.833 256.195C617.316 263.517 595.096 252.365 589.027 233.721C583.507 216.738 592.216 197.721 606.755 188.026C622.322 177.653 643.136 179.111 658.944 188.026C676.294 197.856 686.65 217.043 688.947 236.263C690.284 247.551 689.016 258.738 685.93 269.517C695.462 275.11 706.949 277.415 717.75 275.009C730.918 272.06 742.508 262.839 748.2 250.704C769.391 256.466 791.027 258.636 812.184 252.805C825.694 249.11 838.621 243.009 849.457 234.195C865.504 221.144 876.443 202.094 879.563 181.789C861.458 189.958 838.141 190.704 819.179 184.806L819.145 184.907Z" fill="white"/>
<path d="M1553.02 168.572C1534.03 162.674 1508.55 151.589 1507.66 131.928C1506.6 109.318 1491.61 87.8941 1470.56 78.9789C1449.54 70.0637 1426.56 71.5891 1409.25 86.4026C1402.9 54.8773 1381.47 26.674 1352.64 11.8944C1323.8 -2.88526 1288.1 -3.97 1258.41 9.08081C1230.94 21.1486 1209.13 45.0468 1199.5 73.1485C1204.64 76.9112 1209.34 81.3518 1213.28 86.4704C1221.31 96.7755 1226.42 109.318 1227.65 122.301C1228.78 134.369 1225.01 147.996 1213.66 154.301C1202.96 160.267 1186.78 156.809 1178.99 147.521C1171.28 138.301 1172.72 124.741 1181.87 117.081C1185.2 114.301 1190.03 119.047 1186.67 121.826C1181.57 126.097 1179.2 132.674 1181.7 139.013C1184.21 145.453 1190.93 148.843 1197.48 150.063C1212.77 152.945 1221.27 139.555 1221.07 126.03C1220.79 107.758 1211.16 91.0128 1197 79.8603C1183.76 69.5891 1164.08 69.1823 1149.54 77.5552C1134.86 86.0297 1126.36 103.894 1129.14 120.47C1121.08 137.792 1105.58 150.03 1087.06 155.419C1068.55 160.809 1048.86 160.47 1029.63 158.775C1038.78 174.03 1052.88 186.335 1069.34 193.453C1085.76 200.572 1104.48 202.436 1122.04 198.741C1123.75 212.911 1137.61 227.148 1150.29 233.995C1162.98 240.843 1178.99 241.216 1191.99 234.945C1190.34 262.097 1202.62 290.233 1225.35 305.521C1248.09 320.843 1276.62 326.029 1304.08 324.368C1327.78 322.944 1351.47 316.572 1371.43 303.826C1391.38 291.08 1407.4 271.724 1413.84 249.148C1413.88 249.148 1413.91 249.216 1413.95 249.25C1416.55 239.284 1417.41 228.911 1415.8 218.64C1413.19 202.165 1404.38 186.301 1389.57 177.657C1376.02 169.758 1357.47 168.368 1344.13 177.453C1331.86 185.826 1324.18 202.741 1329.97 217.012C1335.49 230.606 1352.57 239.419 1366.69 233.826C1370.74 232.233 1373.79 238.267 1369.71 239.86C1351.2 247.182 1328.98 236.029 1322.91 217.385C1317.39 200.402 1326.1 181.385 1340.63 171.691C1356.2 161.318 1377.02 162.775 1392.82 171.691C1410.17 181.521 1420.53 200.707 1422.83 219.928C1424.16 231.216 1422.9 242.402 1419.81 253.182C1429.34 258.775 1440.83 261.08 1451.63 258.673C1464.8 255.724 1476.39 246.504 1482.08 234.368C1503.27 240.131 1524.91 242.301 1546.06 236.47C1559.57 232.775 1572.5 226.673 1583.34 217.86C1599.38 204.809 1610.32 185.758 1613.44 165.453C1595.34 173.623 1572.02 174.368 1553.06 168.47L1553.02 168.572Z" fill="white"/>
<rect x="169.322" y="170.5" width="145.954" height="99.0329" fill="white"/>
<rect x="561.959" y="170.5" width="145.954" height="99.0329" fill="white"/>
<rect x="958.707" y="170.5" width="145.954" height="99.0329" fill="white"/>
<rect x="1296.87" y="155.186" width="145.954" height="99.0329" fill="white"/>
</svg>
