<svg width="1440" height="806" viewBox="0 0 1440 806" fill="none" xmlns="http://www.w3.org/2000/svg">
<g clip-path="url(#clip0_131_10847)">
<rect width="1440" height="806" fill="#FFEFD8"/>
<path d="M1083.17 183.389C1077.39 147.218 1119.37 154.463 1119.37 154.463C1117.37 125.716 1112.55 100.592 1140.08 80.8364C1162.61 64.6776 1199.33 64.7804 1220.65 82.8916C1229.68 90.5471 1237.3 102.107 1237.58 114.156C1237.81 123.455 1235.79 139.948 1227.99 145.677C1227.99 145.677 1207.51 170.365 1187.27 157.366C1167.05 144.341 1181.49 124.098 1193.04 122.659C1193.04 122.659 1184.37 109.634 1169.92 129.904C1155.47 150.173 1174.26 171.855 1193.04 171.855C1208.87 171.855 1228.76 161.553 1243.31 141.875C1256.14 140.488 1268.91 143.725 1279.02 153.05C1282.2 156.004 1296.6 172.291 1291.31 177.635C1330.32 137.122 1349.1 192.098 1349.1 192.098C1370.78 173.293 1391 208 1391 208H1034.03C1034.03 208 1031.13 183.415 1083.17 183.415V183.389Z" fill="#F5E3CB"/>
<path d="M115.831 222.576C110.802 191.089 147.371 197.396 147.371 197.396C145.628 172.372 141.425 150.501 165.41 133.304C185.036 119.237 217.023 119.327 235.599 135.093C243.467 141.757 250.106 151.82 250.352 162.308C250.553 170.404 248.787 184.761 241.992 189.748C241.992 189.748 224.154 211.238 206.517 199.923C188.903 188.585 201.488 170.963 211.547 169.71C211.547 169.71 203.991 158.372 191.407 176.017C178.822 193.661 195.184 212.535 211.547 212.535C225.339 212.535 242.662 203.568 255.336 186.438C266.513 185.23 277.645 188.048 286.452 196.166C289.223 198.737 301.763 212.916 297.159 217.567C331.135 182.301 347.498 230.157 347.498 230.157C366.386 213.788 384 244 384 244H73.0254C73.0254 244 70.4995 222.599 115.831 222.599V222.576Z" fill="#F5E3CB"/>
<path d="M974.77 630.256C994.176 557.388 1057.25 529.523 1046.85 425.321C1036.45 321.118 713.911 -175 713.911 -175C713.911 -175 396.312 324.247 386.94 428.554C377.567 532.862 440.933 560.095 461.052 632.779C481.171 705.464 447.93 776.439 430.478 844.391C413.025 912.344 477.263 914 477.263 914L719.297 912.817L961.331 911.634C961.331 911.634 1025.54 909.347 1007.4 841.579C989.292 773.81 955.338 703.15 974.744 630.282L974.77 630.256Z" fill="#F5E3CB"/>
<path d="M76.1665 517.389C70.3932 481.218 112.372 488.463 112.372 488.463C110.37 459.716 105.546 434.592 133.079 414.836C155.607 398.678 192.326 398.78 213.649 416.892C222.681 424.547 230.301 436.107 230.584 448.156C230.815 457.455 228.787 473.948 220.987 479.677C220.987 479.677 200.511 504.365 180.266 491.366C160.046 478.341 174.493 458.098 186.039 456.659C186.039 456.659 177.366 443.634 162.92 463.904C148.474 484.173 167.257 505.855 186.039 505.855C201.871 505.855 221.757 495.553 236.306 475.875C249.135 474.488 261.914 477.725 272.023 487.05C275.205 490.004 289.6 506.291 284.314 511.635C323.316 471.122 342.099 526.098 342.099 526.098C363.781 507.293 384 542 384 542H27.0291C27.0291 542 24.1296 517.415 76.1665 517.415V517.389Z" fill="#F5E3CB"/>
<path d="M1132.17 517.389C1126.39 481.218 1168.37 488.463 1168.37 488.463C1166.37 459.716 1161.55 434.592 1189.08 414.836C1211.61 398.678 1248.33 398.78 1269.65 416.892C1278.68 424.547 1286.3 436.107 1286.58 448.156C1286.81 457.455 1284.79 473.948 1276.99 479.677C1276.99 479.677 1256.51 504.365 1236.27 491.366C1216.05 478.341 1230.49 458.098 1242.04 456.659C1242.04 456.659 1233.37 443.634 1218.92 463.904C1204.47 484.173 1223.26 505.855 1242.04 505.855C1257.87 505.855 1277.76 495.553 1292.31 475.875C1305.14 474.488 1317.91 477.725 1328.02 487.05C1331.2 490.004 1345.6 506.291 1340.31 511.635C1379.32 471.122 1398.1 526.098 1398.1 526.098C1419.78 507.293 1440 542 1440 542H1083.03C1083.03 542 1080.13 517.415 1132.17 517.415V517.389Z" fill="#F5E3CB"/>
</g>
<defs>
<clipPath id="clip0_131_10847">
<rect width="1440" height="806" fill="white"/>
</clipPath>
</defs>
</svg>
