<svg width="89" height="66" viewBox="0 0 89 66" fill="none" xmlns="http://www.w3.org/2000/svg">
<g clip-path="url(#clip0_224_1251)">
<path d="M44.0073 40.382C40.1858 40.382 37.0879 37.284 37.0879 33.4625C37.0879 29.641 40.1858 26.5431 44.0073 26.5431C47.8288 26.5431 50.9268 29.641 50.9268 33.4625C50.9268 37.284 47.8288 40.382 44.0073 40.382Z" fill="url(#paint0_linear_224_1251)"/>
<path d="M38.0333 18.8345C38.0333 21.4339 40.709 24.3084 44.0079 24.3084C47.3068 24.3084 49.9824 21.4339 49.9824 18.8345C49.9824 16.2352 46.3519 0.00909424 44.2134 0.00909424C42.2109 0.00909424 38.03 16.2352 38.03 18.8345H38.0333Z" fill="url(#paint1_linear_224_1251)"/>
<path d="M41.2424 57.5729C42.3598 56.3627 42.9234 54.5823 42.7012 52.9245C42.4824 51.2966 41.7398 49.7881 40.9606 48.3392C37.8871 42.6398 34.0511 37.3814 31.1036 31.6125C28.5242 26.563 26.5614 22.0903 21.1439 19.3617C20.3017 18.9406 19.3568 18.6422 18.5743 18.4897C17.7687 18.3206 17.0227 18.2576 16.2999 18.2311C14.861 18.1847 13.5348 18.3273 12.2815 18.5859C11.0349 18.8412 9.8612 19.2291 8.78366 19.7562C7.71276 20.2768 6.71147 20.9598 5.94559 21.8815C5.15981 22.77 4.76527 24.02 4.85479 24.9682C4.93105 25.9264 5.29243 26.5795 5.61073 27.0271C5.94559 27.4714 6.25062 27.7499 6.49928 27.9024C6.74131 28.0583 6.9104 28.1047 6.99992 28.0483C7.17896 27.9455 7.04633 27.3653 7.02313 26.5099C7.01981 26.0888 7.07949 25.6048 7.28173 25.2368C7.49724 24.8687 7.78238 24.6499 8.26313 24.4642C9.19147 24.083 10.8658 23.9769 12.5998 24.2686C13.4685 24.4079 14.367 24.6433 15.1793 24.9715C15.5804 25.1373 15.9684 25.3196 16.2734 25.5252C16.6016 25.7374 16.7574 25.9098 16.9265 26.122C17.835 27.1664 18.6539 28.7114 19.2673 30.588C19.5856 31.5097 19.8641 32.4977 20.126 33.5222C20.3879 34.5367 20.6333 35.5811 20.8852 36.6421C21.1372 37.6964 21.3925 38.764 21.7009 39.8548C22.0059 40.9489 22.3441 41.9303 22.6524 42.8752C22.9442 43.8102 23.3221 44.6888 23.6471 45.4779C23.9819 46.267 24.2737 46.9699 24.6185 47.5667C25.275 48.7636 25.9281 49.9174 26.7371 50.9584C27.125 51.4856 27.5162 51.9929 27.9108 52.4802C28.3352 52.9477 28.7629 53.3986 29.1873 53.8263C31.1965 55.8024 34.8037 58.9521 37.8043 59.0516C39.2067 59.098 40.387 58.5012 41.2424 57.5762V57.5729Z" fill="url(#paint2_linear_224_1251)"/>
<path d="M0.000587463 56.5152C0.000587463 56.5152 0.653744 56.4456 1.78433 56.2666C2.36786 56.1837 3.06079 56.0809 3.82668 55.9715C4.61576 55.8985 5.49437 55.7394 6.44261 55.693C8.33576 55.5371 10.4908 55.5139 12.5232 56.0046L13.2825 56.2069L13.6638 56.2997L14.0616 56.4456L14.864 56.7208C15.1259 56.8236 15.3779 56.9495 15.6365 57.0556C15.8984 57.1584 16.157 57.2711 16.4024 57.417L17.1649 57.8116C17.6656 58.1232 18.1828 58.4051 18.7067 58.7764C19.7577 59.4726 20.8253 60.275 21.9326 61.1072L22.7781 61.7272L23.7164 62.3803L24.6414 63.0003L25.6128 63.5474C28.1691 64.9764 30.8149 65.7423 33.0097 65.9379C35.2212 66.1003 36.9419 65.8682 38.0924 65.6096C39.2462 65.3278 39.8496 65.1355 39.8496 65.1355C39.8496 65.1355 39.2296 64.8869 38.1686 64.5056C37.111 64.111 35.6356 63.4579 34.0342 62.5494C32.4361 61.5979 30.7784 60.3048 29.0809 58.6802L28.431 58.0735L27.7878 57.4005C27.3104 56.9197 26.8363 56.4456 26.3621 55.9715C25.3144 54.937 24.1043 53.8562 22.6355 52.8781C21.9227 52.3775 21.117 51.9597 20.3279 51.5585C19.9234 51.3696 19.5024 51.2137 19.0946 51.0513C18.6868 50.8789 18.269 50.7529 17.8479 50.6468C17.4302 50.5374 17.0157 50.418 16.6046 50.3351C16.1968 50.2754 15.789 50.2124 15.3812 50.1528L14.7811 50.0732L14.1578 50.0533L12.941 50.04C9.72827 50.1528 7.19522 51.2635 5.34518 52.3244C4.39363 52.8383 3.6377 53.4285 2.9547 53.9059C2.30155 54.4264 1.75117 54.8774 1.31353 55.262C0.451496 56.0477 0.000587463 56.5119 0.000587463 56.5119V56.5152Z" fill="#F95D5D"/>
<path d="M47.3733 57.5729C46.256 56.3627 45.6923 54.5823 45.9145 52.9245C46.1333 51.2966 46.876 49.7881 47.6551 48.3392C50.7286 42.6398 54.5646 37.3814 57.5121 31.6125C60.0916 26.563 62.0544 22.0903 67.4719 19.3617C68.314 18.9406 69.2589 18.6422 70.0414 18.4897C70.8471 18.3206 71.5931 18.2576 72.3158 18.2311C73.7548 18.1847 75.081 18.3273 76.3342 18.5859C77.5809 18.8412 78.7545 19.2291 79.8321 19.7562C80.903 20.2768 81.9043 20.9598 82.6701 21.8815C83.4559 22.77 83.8505 24.02 83.7609 24.9682C83.6847 25.9264 83.3233 26.5795 83.005 27.0271C82.6701 27.4714 82.3651 27.7499 82.1165 27.9024C81.8744 28.0583 81.7053 28.1047 81.6158 28.0483C81.4368 27.9455 81.5694 27.3653 81.5926 26.5099C81.5959 26.0888 81.5362 25.6048 81.334 25.2368C81.1185 24.8687 80.8334 24.6499 80.3526 24.4642C79.4243 24.083 77.7499 23.9769 76.0159 24.2686C75.1473 24.4079 74.2488 24.6433 73.4365 24.9715C73.0353 25.1373 72.6474 25.3196 72.339 25.5252C72.0108 25.7374 71.855 25.9098 71.6859 26.122C70.7774 27.1664 69.9585 28.7114 69.3451 30.588C69.0269 31.5097 68.7484 32.4977 68.4864 33.5222C68.2245 34.5367 67.9792 35.5811 67.7272 36.6421C67.4752 37.6964 67.2199 38.764 66.9116 39.8548C66.6065 40.9489 66.2684 41.9303 65.96 42.8752C65.6683 43.8102 65.2903 44.6888 64.9654 45.4779C64.6305 46.267 64.3387 46.9699 63.9939 47.5667C63.3375 48.7636 62.6843 49.9174 61.8753 50.9584C61.4874 51.4856 61.0962 51.9929 60.7016 52.4802C60.2772 52.9477 59.8495 53.3986 59.4252 53.8263C57.416 55.8024 53.8087 58.9521 50.8082 59.0516C49.4057 59.098 48.2254 58.5012 47.37 57.5762L47.3733 57.5729Z" fill="url(#paint3_linear_224_1251)"/>
<path d="M88.6172 56.5152C88.6172 56.5152 87.964 56.4456 86.8334 56.2666C86.2499 56.1837 85.557 56.0809 84.7911 55.9715C84.002 55.8985 83.1234 55.7394 82.1752 55.693C80.282 55.5371 78.1269 55.5139 76.0945 56.0046L75.3353 56.2069L74.954 56.2997L74.5561 56.4456L73.7538 56.7208C73.4919 56.8236 73.2399 56.9495 72.9813 57.0556C72.7194 57.1584 72.4607 57.2711 72.2154 57.417L71.4528 57.8116C70.9522 58.1232 70.435 58.4051 69.9111 58.7764C68.8601 59.4726 67.7925 60.275 66.6851 61.1072L65.8397 61.7272L64.9014 62.3803L63.9764 63.0003L63.0049 63.5474C60.4487 64.9764 57.8029 65.7423 55.608 65.9379C53.3966 66.1003 51.6759 65.8682 50.5254 65.6096C49.3716 65.3278 48.7682 65.1355 48.7682 65.1355C48.7682 65.1355 49.3882 64.8869 50.4491 64.5056C51.5068 64.111 52.9822 63.4579 54.5836 62.5494C56.1816 61.5979 57.8394 60.3048 59.5369 58.6802L60.1868 58.0735L60.83 57.4005C61.3074 56.9197 61.7815 56.4456 62.2556 55.9715C63.3033 54.937 64.5135 53.8562 65.9823 52.8781C66.6951 52.3775 67.5008 51.9597 68.2898 51.5585C68.6943 51.3696 69.1154 51.2137 69.5232 51.0513C69.931 50.8789 70.3488 50.7529 70.7698 50.6468C71.1876 50.5374 71.602 50.418 72.0132 50.3351C72.421 50.2754 72.8288 50.2124 73.2366 50.1528L73.8367 50.0732L74.46 50.0533L75.6768 50.04C78.8895 50.1528 81.4225 51.2635 83.2726 52.3244C84.2241 52.8383 84.9801 53.4285 85.6631 53.9059C86.3162 54.4264 86.8666 54.8774 87.3042 55.262C88.1663 56.0477 88.6172 56.5119 88.6172 56.5119V56.5152Z" fill="#EBE7E7"/>
</g>
<defs>
<linearGradient id="paint0_linear_224_1251" x1="115.407" y1="82.406" x2="6.78084" y2="7.94309" gradientUnits="userSpaceOnUse">
<stop stop-color="#EEDEBC"/>
<stop offset="0.15" stop-color="#EEDEBC"/>
<stop offset="0.35" stop-color="#DDC5A3"/>
<stop offset="0.61" stop-color="#C9A885"/>
<stop offset="0.72" stop-color="#9A7A5F"/>
<stop offset="0.84" stop-color="#C9A885"/>
<stop offset="1" stop-color="#EEDEBC"/>
</linearGradient>
<linearGradient id="paint1_linear_224_1251" x1="125.112" y1="68.2488" x2="16.4859" y2="-6.21411" gradientUnits="userSpaceOnUse">
<stop stop-color="#EEDEBC"/>
<stop offset="0.15" stop-color="#EEDEBC"/>
<stop offset="0.35" stop-color="#DDC5A3"/>
<stop offset="0.61" stop-color="#C9A885"/>
<stop offset="0.72" stop-color="#9A7A5F"/>
<stop offset="0.84" stop-color="#C9A885"/>
<stop offset="1" stop-color="#EEDEBC"/>
</linearGradient>
<linearGradient id="paint2_linear_224_1251" x1="107.824" y1="93.4698" x2="-0.804776" y2="19.0069" gradientUnits="userSpaceOnUse">
<stop stop-color="#EEDEBC"/>
<stop offset="0.15" stop-color="#EEDEBC"/>
<stop offset="0.35" stop-color="#DDC5A3"/>
<stop offset="0.61" stop-color="#C9A885"/>
<stop offset="0.72" stop-color="#9A7A5F"/>
<stop offset="0.84" stop-color="#C9A885"/>
<stop offset="1" stop-color="#EEDEBC"/>
</linearGradient>
<linearGradient id="paint3_linear_224_1251" x1="119.243" y1="76.8094" x2="10.6176" y2="2.34652" gradientUnits="userSpaceOnUse">
<stop stop-color="#EEDEBC"/>
<stop offset="0.15" stop-color="#EEDEBC"/>
<stop offset="0.35" stop-color="#DDC5A3"/>
<stop offset="0.61" stop-color="#C9A885"/>
<stop offset="0.72" stop-color="#9A7A5F"/>
<stop offset="0.84" stop-color="#C9A885"/>
<stop offset="1" stop-color="#EEDEBC"/>
</linearGradient>
<clipPath id="clip0_224_1251">
<rect width="88.6168" height="65.9818" fill="white" transform="matrix(-1 0 0 1 88.6172 0.00909424)"/>
</clipPath>
</defs>
</svg>
